<?xml version="1.0" encoding="utf-8" ?>
<svg baseProfile="full" height="460px" version="1.1" viewBox="0 0 508 460" width="508px" xmlns="http://www.w3.org/2000/svg" xmlns:ev="http://www.w3.org/2001/xml-events" xmlns:xlink="http://www.w3.org/1999/xlink"><defs /><path d="M 423,0 L 422,1 L 421,1 L 420,2 L 419,2 L 418,3 L 417,3 L 400,20 L 400,21 L 381,40 L 381,41 L 355,67 L 355,68 L 354,69 L 353,69 L 352,70 L 352,71 L 336,87 L 336,88 L 322,102 L 322,103 L 309,116 L 309,117 L 308,118 L 307,118 L 307,119 L 292,134 L 292,135 L 245,182 L 245,183 L 233,195 L 233,196 L 225,204 L 225,205 L 199,231 L 199,232 L 184,247 L 184,248 L 175,257 L 175,258 L 161,272 L 161,273 L 160,274 L 159,274 L 159,275 L 107,327 L 107,328 L 91,344 L 91,345 L 79,357 L 79,358 L 65,372 L 65,373 L 53,385 L 53,386 L 40,399 L 40,400 L 39,401 L 38,401 L 38,402 L 22,418 L 22,419 L 1,440 L 1,442 L 0,443 L 0,447 L 1,448 L 1,450 L 2,451 L 2,452 L 7,457 L 8,457 L 9,458 L 10,458 L 11,459 L 216,459 L 217,458 L 217,457 L 218,456 L 218,455 L 220,453 L 220,452 L 221,451 L 221,450 L 223,448 L 223,447 L 224,446 L 224,445 L 226,443 L 226,442 L 227,441 L 227,440 L 228,439 L 228,438 L 230,436 L 230,435 L 231,434 L 231,433 L 232,432 L 232,431 L 234,429 L 234,428 L 236,426 L 236,425 L 237,424 L 237,423 L 238,422 L 238,421 L 240,419 L 240,418 L 241,417 L 241,416 L 242,415 L 242,414 L 243,413 L 243,412 L 245,410 L 245,409 L 246,408 L 246,407 L 247,406 L 247,405 L 248,404 L 248,403 L 249,402 L 249,401 L 251,399 L 251,398 L 252,397 L 252,396 L 253,395 L 253,394 L 254,393 L 254,392 L 255,391 L 255,390 L 257,388 L 257,387 L 258,386 L 258,385 L 259,384 L 259,383 L 260,382 L 260,381 L 261,380 L 261,379 L 262,378 L 262,377 L 264,375 L 264,374 L 265,373 L 265,372 L 266,371 L 266,370 L 267,369 L 267,368 L 268,367 L 268,366 L 269,365 L 269,364 L 271,362 L 271,361 L 272,360 L 272,359 L 273,358 L 273,357 L 274,356 L 274,355 L 275,354 L 275,353 L 277,351 L 277,350 L 278,349 L 278,348 L 279,347 L 279,346 L 280,345 L 280,344 L 281,343 L 281,342 L 282,341 L 282,340 L 283,339 L 283,338 L 285,336 L 285,335 L 286,334 L 286,333 L 287,332 L 287,331 L 288,330 L 288,329 L 289,328 L 289,327 L 290,326 L 290,325 L 292,323 L 292,322 L 293,321 L 293,320 L 294,319 L 294,318 L 295,317 L 295,316 L 296,315 L 296,314 L 297,313 L 297,312 L 298,311 L 298,310 L 300,308 L 300,307 L 301,306 L 301,305 L 302,304 L 302,303 L 303,302 L 303,301 L 304,300 L 304,299 L 306,297 L 306,296 L 307,295 L 307,294 L 308,293 L 308,292 L 309,291 L 309,290 L 311,288 L 311,287 L 312,286 L 312,285 L 313,284 L 313,283 L 314,282 L 314,281 L 316,279 L 316,278 L 317,277 L 317,276 L 318,275 L 318,274 L 320,272 L 320,271 L 321,270 L 321,269 L 322,268 L 322,267 L 324,265 L 324,264 L 326,262 L 333,262 L 334,263 L 336,263 L 339,266 L 339,268 L 338,269 L 338,272 L 337,273 L 337,276 L 336,277 L 336,280 L 335,281 L 335,284 L 334,285 L 334,288 L 333,289 L 333,292 L 332,293 L 332,296 L 331,297 L 331,300 L 330,301 L 330,304 L 329,305 L 329,308 L 328,309 L 328,312 L 327,313 L 327,315 L 326,316 L 326,319 L 325,320 L 325,323 L 324,324 L 324,326 L 323,327 L 323,330 L 322,331 L 322,333 L 321,334 L 321,337 L 320,338 L 320,341 L 319,342 L 319,344 L 318,345 L 318,349 L 317,350 L 317,353 L 316,354 L 316,357 L 315,358 L 315,361 L 314,362 L 314,365 L 313,366 L 313,369 L 312,370 L 312,374 L 311,375 L 311,378 L 310,379 L 310,382 L 309,383 L 309,386 L 308,387 L 308,391 L 307,392 L 307,395 L 306,396 L 306,399 L 305,400 L 305,403 L 304,404 L 304,407 L 303,408 L 303,410 L 302,411 L 302,414 L 301,415 L 301,418 L 300,419 L 300,422 L 299,423 L 299,426 L 298,427 L 298,431 L 297,432 L 297,435 L 296,436 L 296,439 L 295,440 L 295,443 L 294,444 L 294,447 L 293,448 L 293,450 L 292,451 L 292,455 L 291,456 L 291,457 L 499,457 L 500,456 L 502,456 L 506,452 L 506,450 L 507,449 L 507,439 L 506,438 L 506,432 L 505,431 L 505,424 L 504,423 L 504,417 L 503,416 L 503,410 L 502,409 L 502,404 L 501,403 L 501,397 L 500,396 L 500,391 L 499,390 L 499,385 L 498,384 L 498,378 L 497,377 L 497,372 L 496,371 L 496,366 L 495,365 L 495,359 L 494,358 L 494,353 L 493,352 L 493,347 L 492,346 L 492,341 L 491,340 L 491,335 L 490,334 L 490,329 L 489,328 L 489,323 L 488,322 L 488,317 L 487,316 L 487,310 L 486,309 L 486,304 L 485,303 L 485,298 L 484,297 L 484,291 L 483,290 L 483,285 L 482,284 L 482,279 L 481,278 L 481,273 L 480,272 L 480,267 L 479,266 L 479,261 L 478,260 L 478,255 L 477,254 L 477,249 L 476,248 L 476,242 L 475,241 L 475,236 L 474,235 L 474,230 L 473,229 L 473,224 L 472,223 L 472,218 L 471,217 L 471,212 L 470,211 L 470,206 L 469,205 L 469,200 L 468,199 L 468,193 L 467,192 L 467,187 L 466,186 L 466,181 L 465,180 L 465,174 L 464,173 L 464,168 L 463,167 L 463,162 L 462,161 L 462,156 L 461,155 L 461,150 L 460,149 L 460,144 L 459,143 L 459,138 L 458,137 L 458,131 L 457,130 L 457,124 L 456,123 L 456,117 L 455,116 L 455,111 L 454,110 L 454,104 L 453,103 L 453,97 L 452,96 L 452,91 L 451,90 L 451,84 L 450,83 L 450,78 L 449,77 L 449,72 L 448,71 L 448,66 L 447,65 L 447,60 L 446,59 L 446,54 L 445,53 L 445,49 L 444,48 L 444,43 L 443,42 L 443,37 L 442,36 L 442,30 L 441,29 L 441,24 L 440,23 L 440,19 L 439,18 L 439,13 L 438,12 L 438,9 L 437,8 L 437,7 L 436,6 L 436,5 L 435,4 L 435,3 L 434,2 L 433,2 L 431,0 Z" fill="black" /></svg>